<svg width="27" height="20" viewBox="0 0 27 20" fill="none" xmlns="http://www.w3.org/2000/svg">
<g clip-path="url(#clip0)">
<path d="M0 3.68421C0 2.36842 0 1.18421 0 0C8.93333 0 17.7333 0 26.6667 0C26.6667 1.18421 26.6667 2.36842 26.6667 3.68421C17.8667 3.68421 8.93333 3.68421 0 3.68421Z" fill="#29B574"/>
<path d="M0 11.6842C0 10.3684 0 9.18421 0 8C8.93333 8 17.7333 8 26.6667 8C26.6667 9.18421 26.6667 10.3684 26.6667 11.5526C17.7333 11.6842 8.93333 11.6842 0 11.6842Z" fill="#29B574"/>
<path d="M0 20.0001C0 18.8159 0 17.6317 0 16.3159C8.93333 16.3159 17.7333 16.3159 26.6667 16.3159C26.6667 17.5001 26.6667 18.6843 26.6667 20.0001C17.7333 20.0001 8.93333 20.0001 0 20.0001Z" fill="#29B574"/>
</g>
<defs>
<clipPath id="clip0">
<rect width="26.6667" height="20" fill="white"/>
</clipPath>
</defs>
</svg>
