<svg data-v-a9bf0dce="" width="171" height="54" version="1.1" id="Layer_1" xmlns="http://www.w3.org/2000/svg" xmlns:xlink="http://www.w3.org/1999/xlink" viewBox="20 14 171 54" xml:space="preserve"><path d="M186.4,0.1" class="st0"/><polyline points="186.9,0.1 187.3,0.1 187.3,0.6 " class="st1"/><g><polygon points="37.6,46.7 32.5,49.6 25.2,45.4 25.2,37 32.5,32.8 35.9,34.7 39.8,37 44.9,39.9 48.5,37.9 32.5,28.7 &#10;    21.7,35 21.7,47.5 32.5,53.7 37.6,50.8   " class="st2"/><polygon points="39.8,24.5 39.8,30.4 43.4,32.4 43.4,26.5 50.7,22.3 58,26.5 58,35 54.6,36.9 50.7,39.2 45.6,42.1 &#10;    45.6,46.2 61.5,37 61.5,24.5 50.7,18.2   " class="st3"/><polygon points="58,47.5 58,55.9 50.7,60.1 43.4,55.9 43.4,52 43.4,47.5 43.4,41.6 39.8,39.5 39.8,57.9 50.7,64.2 &#10;    61.5,57.9 61.5,45.4 56.4,42.5 52.9,44.5   " class="st4"/><path d="M83.5,35.4v0.3c0.1,1.9-0.4,3.8-1.5,5.3c-1,1.3-2.6,2.1-4.3,2c-1.6,0.1-3.1-0.8-3.9-2.1l-0.3,1.8h-3.4V21.2h4&#10;    v8.1c0.8-1.2,2.2-1.9,3.6-1.9c1.7-0.1,3.3,0.7,4.3,2.1C83.1,31.3,83.6,33.4,83.5,35.4z M79.5,35.7v-0.3c0.1-1.2-0.2-2.4-0.7-3.5&#10;    c-0.4-0.8-1.3-1.3-2.1-1.2c-1.1-0.1-2.1,0.5-2.6,1.5v6.3c0.5,0.9,1.6,1.5,2.6,1.4c0.8,0.1,1.7-0.3,2.1-1&#10;    C79.4,37.9,79.6,36.8,79.5,35.7z" class="st5"/><path d="M90.9,43c-1.4,0.1-2.8-0.5-3.7-1.5c-1-1.4-1.4-3-1.3-4.7v-9h4v9c-0.1,0.8,0.1,1.6,0.5,2.3&#10;    c0.4,0.5,1,0.8,1.7,0.7c1.1,0.1,2.1-0.4,2.8-1.2V27.8h4v14.9h-3.4l-0.3-2.1C94.3,42.1,92.6,43,90.9,43z" class="st5"/><path d="M102.1,45.4l0.8,0.1c1.1,0,2-0.7,2.3-1.7l0.5-1.1l-5.3-14.9h4.3l2.5,8.6l0.2,0.8h0.1l2.8-9.5h4.3l-6,17.1&#10;    c-0.2,0.5-0.5,1-0.8,1.5c-0.3,0.4-0.6,0.8-1,1.2c-0.9,0.8-2.1,1.2-3.3,1.1c-0.7,0-1.3-0.1-2-0.3L102.1,45.4z" class="st5"/><path d="M119.3,21.2v8.6c1-1.5,2.6-2.3,4.4-2.3c1.4-0.1,2.8,0.5,3.7,1.5c1,1.3,1.4,2.8,1.3,4.4v9.3H126v-9.4&#10;    c0.1-1-0.2-1.9-0.8-2.7c-0.6-0.6-1.5-0.9-2.4-0.9c-1.5,0-2.8,0.7-3.5,2v11h-2.7V21.2H119.3z" class="st5"/><path d="M135.6,21.2V24h-2.7v-2.8H135.6z M135.6,27.8v14.9h-2.7V27.8L135.6,27.8z" class="st5"/><path d="M141.2,27.8l3.5,10.5l0.2,1h0.1l0.3-1l3.4-10.5h2.8L146,42.7h-2l-5.5-14.9L141.2,27.8z" class="st5"/><path d="M160,43c-1.9,0.1-3.7-0.6-4.9-2c-1.3-1.5-1.9-3.4-1.8-5.4V35c-0.1-1.9,0.6-3.8,1.9-5.3&#10;    c1.1-1.4,2.7-2.1,4.5-2.1c1.7-0.1,3.4,0.5,4.5,1.8c1.1,1.4,1.7,3.1,1.6,4.9V36H156V36c0,1.3,0.4,2.5,1.1,3.5&#10;    c0.7,0.9,1.8,1.3,2.9,1.3c1.5,0.1,3-0.5,4.2-1.5l1.1,1.8l0,0C163.8,42.4,161.9,43.1,160,43z M163,33.5c0.1-1-0.3-1.9-0.9-2.7&#10;    c-0.6-0.7-1.6-1.1-2.5-1c-0.9,0-1.8,0.4-2.3,1.1c-0.7,0.8-1.1,1.8-1.2,2.9v0.1h6.9V33.5z" class="st5"/><path d="M73.2,57.8c0.2-0.1,0.3-0.3,0.3-0.6c0-0.2-0.1-0.4-0.3-0.6c-0.3-0.2-0.6-0.3-1-0.4c-0.6-0.1-1.1-0.3-1.6-0.6&#10;    c-0.3-0.2-0.5-0.6-0.5-1c0-0.5,0.2-0.9,0.6-1.2c0.4-0.4,1-0.5,1.6-0.5c0.6,0,1.1,0.2,1.5,0.5c0.4,0.3,0.6,0.8,0.6,1.2l0,0h-1&#10;    c0-0.3-0.1-0.5-0.3-0.7c-0.2-0.2-0.5-0.3-0.8-0.3c-0.3,0-0.6,0.1-0.8,0.2c-0.2,0.1-0.3,0.3-0.3,0.6c0,0.2,0.1,0.4,0.2,0.5&#10;    c0.3,0.2,0.6,0.3,0.9,0.3c0.6,0.1,1.1,0.3,1.6,0.6c0.3,0.2,0.5,0.6,0.5,1c0,0.5-0.2,0.9-0.6,1.2c-0.5,0.3-1,0.5-1.6,0.5&#10;    c-0.6,0-1.2-0.2-1.6-0.5c-0.4-0.3-0.6-0.8-0.6-1.2l0,0h1c0,0.3,0.1,0.6,0.4,0.8c0.3,0.2,0.6,0.3,0.9,0.3l0,0&#10;    C72.7,58,73,57.9,73.2,57.8z" class="st2"/><path d="M75.6,56v-0.1c0-0.7,0.2-1.5,0.7-2.1c0.9-1,2.5-1.1,3.5-0.1c0,0,0.1,0.1,0.1,0.1c0.5,0.6,0.7,1.3,0.7,2.1V56&#10;    c0,0.7-0.2,1.4-0.7,2c-0.5,0.5-1.1,0.8-1.8,0.8c-0.7,0-1.4-0.3-1.8-0.8C75.8,57.4,75.6,56.7,75.6,56z M76.6,55.9V56&#10;    c0,0.5,0.1,1,0.4,1.5c0.4,0.6,1.3,0.7,1.9,0.3c0.1-0.1,0.2-0.2,0.3-0.3c0.3-0.4,0.4-0.9,0.4-1.5v-0.1c0-0.5-0.1-1-0.4-1.5&#10;    c-0.4-0.6-1.3-0.7-1.9-0.3c-0.1,0.1-0.2,0.2-0.3,0.3C76.7,54.8,76.6,55.3,76.6,55.9L76.6,55.9z" class="st2"/><path d="M83.8,58.8c-0.5,0-1.1-0.2-1.4-0.6c-0.4-0.5-0.5-1.2-0.5-1.8v-3.3h1v3.3c0,0.4,0,0.9,0.2,1.2&#10;    c0.2,0.2,0.5,0.4,0.8,0.3c0.6,0.1,1.2-0.3,1.4-0.8v-4h1v5.6h-0.9l-0.1-0.8C85,58.5,84.4,58.8,83.8,58.8z" class="st2"/><path d="M88.9,58.7h-1v-5.6h0.9l0.1,0.8c0.2-0.5,0.8-0.9,1.4-0.9c0.1,0,0.3,0,0.4,0.1l-0.1,1L90,54&#10;    c-0.5,0-0.9,0.3-1.1,0.7L88.9,58.7z" class="st2"/><path d="M92.2,56c0,0.5,0.1,1,0.3,1.4c0.2,0.4,0.7,0.6,1.2,0.6c0.3,0,0.6-0.1,0.9-0.3c0.2-0.2,0.4-0.5,0.4-0.8h0.9l0,0&#10;    c0,0.5-0.2,1-0.6,1.3c-0.4,0.4-1,0.6-1.6,0.6c-0.7,0-1.4-0.2-1.8-0.8c-0.5-0.6-0.7-1.3-0.7-2v-0.2c0-0.7,0.2-1.4,0.7-2&#10;    c0.5-0.5,1.1-0.8,1.8-0.8c0.6,0,1.2,0.2,1.6,0.6c0.4,0.4,0.6,0.9,0.6,1.4l0,0h-0.9c0-0.3-0.1-0.6-0.4-0.9c-0.2-0.2-0.6-0.4-0.9-0.3&#10;    c-0.6,0-1.2,0.4-1.4,1c-0.1,0.3-0.2,0.7-0.1,1L92.2,56z" class="st2"/><path d="M98.1,50.6v1h-1v-1H98.1z M98.1,53.1v5.6h-1v-5.6H98.1z" class="st2"/><path d="M99.7,53.1h0.9l0.1,0.8c0.3-0.6,1-1,1.7-0.9c0.5,0,1,0.2,1.4,0.5c0.4,0.5,0.5,1,0.5,1.6v3.5h-1v-3.5&#10;    c0-0.4-0.1-0.7-0.3-1c-0.2-0.2-0.6-0.3-0.9-0.3c-0.3,0-0.5,0.1-0.8,0.2c-0.2,0.1-0.4,0.3-0.5,0.6v4.1h-1L99.7,53.1z" class="st2"/><path d="M105.4,56.4v-0.1c0-0.8,0.2-1.5,0.6-2.2c0.4-0.5,1-0.8,1.6-0.8c0.6,0,1.2,0.3,1.6,0.8l0.1-0.7h0.8V59&#10;    c0,0.6-0.2,1.2-0.6,1.7c-0.5,0.4-1.2,0.6-1.8,0.6c-0.3,0-0.6,0-0.9-0.1c-0.3-0.1-0.6-0.2-0.8-0.3l0.3-0.8c0.2,0.1,0.4,0.2,0.7,0.2&#10;    c0.2,0.1,0.5,0.1,0.8,0.1c0.4,0,0.8-0.1,1.1-0.3c0.2-0.3,0.4-0.6,0.3-1v-0.6c-0.4,0.5-0.9,0.7-1.6,0.7c-0.6,0-1.2-0.3-1.6-0.7&#10;    C105.6,57.8,105.4,57.1,105.4,56.4z M106.4,56.2v0.1c0,0.5,0.1,1,0.4,1.4c0.3,0.3,0.7,0.5,1.1,0.5c0.6,0,1.1-0.3,1.3-0.8v-2.6&#10;    c-0.2-0.5-0.7-0.8-1.3-0.8c-0.4,0-0.9,0.2-1.1,0.6C106.6,55.1,106.4,55.7,106.4,56.2L106.4,56.2z" class="st2"/><path d="M115.7,58.7h-1v-5.6h0.9l0.1,0.7c0.4-0.6,1-0.9,1.7-0.8c0.7,0,1.3,0.4,1.5,1c0.3-0.6,1-1,1.7-1&#10;    c0.5,0,1,0.2,1.4,0.6c0.4,0.5,0.5,1.1,0.5,1.8v3.3h-1v-3.4c0-0.4-0.1-0.8-0.3-1.2c-0.2-0.2-0.5-0.4-0.8-0.3c-0.3,0-0.6,0.1-0.9,0.3&#10;    c-0.2,0.3-0.4,0.6-0.4,0.9v3.6h-1v-3.4c0-0.4-0.1-0.8-0.3-1.1c-0.2-0.3-0.5-0.4-0.8-0.4c-0.5,0-1,0.3-1.2,0.7L115.7,58.7z" class="st2"/><path d="M125.5,58.8c-0.5,0-1-0.1-1.3-0.5c-0.3-0.3-0.5-0.8-0.5-1.2c0-0.5,0.2-1,0.7-1.2c0.5-0.3,1.1-0.5,1.8-0.5h1.1&#10;    v-0.5c0-0.3-0.1-0.6-0.3-0.8c-0.2-0.2-0.5-0.3-0.8-0.3c-0.3,0-0.6,0.1-0.8,0.2c-0.2,0.1-0.3,0.4-0.3,0.6h-1l0,0&#10;    c0-0.5,0.2-0.9,0.6-1.1c0.5-0.3,1-0.5,1.6-0.5c0.5,0,1.1,0.1,1.5,0.5c0.4,0.4,0.6,0.9,0.6,1.4v2.7c0,0.4,0,0.8,0.1,1.1h-1.1&#10;    c-0.1-0.3-0.1-0.6-0.1-0.8c-0.2,0.3-0.5,0.5-0.8,0.7C126.2,58.7,125.8,58.8,125.5,58.8z M124.8,57.2L124.8,57.2&#10;    c0,0.2,0.1,0.4,0.2,0.6c0.2,0.2,0.5,0.2,0.7,0.2c0.3,0,0.7-0.1,0.9-0.3c0.3-0.1,0.5-0.4,0.6-0.7v-0.9h-1.1c-0.4,0-0.7,0.1-1,0.3&#10;    C124.9,56.6,124.8,56.9,124.8,57.2z" class="st2"/><path d="M130.1,53.8c0.3-0.5,0.9-0.8,1.6-0.8c0.6,0,1.2,0.2,1.6,0.7v-3.1h1v8.1h-0.8l-0.1-0.7c-0.4,0.5-1,0.8-1.6,0.8&#10;    c-0.6,0-1.2-0.3-1.6-0.7c-0.4-0.6-0.6-1.3-0.6-2V56C129.4,55.2,129.7,54.5,130.1,53.8z M130.5,56L130.5,56c0,0.6,0.1,1.1,0.4,1.5&#10;    c0.2,0.3,0.6,0.5,1.1,0.5c0.5,0,1.1-0.3,1.3-0.8v-2.6c-0.2-0.5-0.7-0.8-1.3-0.8c-0.4,0-0.8,0.2-1.1,0.6&#10;    C130.6,54.9,130.5,55.4,130.5,56L130.5,56z" class="st2"/><path d="M138.1,58.8c-0.7,0-1.4-0.3-1.9-0.8c-0.5-0.6-0.7-1.3-0.7-2v-0.2c0-0.7,0.2-1.4,0.7-2c0.9-1,2.3-1.1,3.3-0.2&#10;    c0,0,0.1,0.1,0.1,0.1c0.4,0.5,0.6,1.2,0.6,1.8v0.6h-3.6l0,0c0,0.5,0.1,1,0.4,1.3c0.3,0.3,0.7,0.5,1.1,0.5c0.6,0,1.1-0.2,1.6-0.5&#10;    l0.4,0.7l0,0C139.5,58.6,138.8,58.9,138.1,58.8z M139.2,55.2c0-0.4-0.1-0.7-0.3-1c-0.3-0.3-0.6-0.4-1-0.4c-0.3,0-0.7,0.2-0.9,0.4&#10;    c-0.3,0.3-0.4,0.7-0.4,1.1l0,0h2.6L139.2,55.2z" class="st2"/><path d="M146.6,58.8c-0.7,0-1.4-0.3-1.9-0.8c-0.5-0.6-0.7-1.3-0.7-2v-0.2c0-0.7,0.2-1.4,0.7-2c0.4-0.5,1-0.8,1.7-0.8&#10;    c0.6,0,1.3,0.2,1.7,0.7c0.4,0.5,0.6,1.2,0.6,1.8v0.6h-3.6l0,0c0,0.5,0.1,0.9,0.4,1.3c0.3,0.3,0.7,0.5,1.1,0.5&#10;    c0.6,0,1.1-0.2,1.6-0.5l0.4,0.7l0,0C148.1,58.6,147.4,58.9,146.6,58.8z M147.8,55.2c0-0.4-0.1-0.7-0.3-1c-0.2-0.3-0.6-0.4-0.9-0.4&#10;    c-0.3,0-0.7,0.2-0.9,0.4c-0.3,0.3-0.4,0.7-0.4,1.1l0,0h2.6L147.8,55.2z" class="st2"/><path d="M151.5,58.8c-0.5,0-1-0.1-1.3-0.5c-0.3-0.3-0.5-0.8-0.5-1.2c0-0.5,0.2-1,0.6-1.2c0.5-0.3,1.1-0.5,1.8-0.5h1.1&#10;    v-0.5c0-0.3-0.1-0.6-0.3-0.8c-0.2-0.2-0.5-0.3-0.8-0.3c-0.3,0-0.6,0.1-0.8,0.2c-0.2,0.1-0.3,0.4-0.3,0.6h-1l0,0&#10;    c0-0.5,0.2-0.9,0.6-1.1c0.5-0.3,1-0.5,1.6-0.5c0.5,0,1.1,0.1,1.5,0.5c0.4,0.4,0.6,0.9,0.6,1.4v2.7c0,0.4,0,0.8,0.1,1.1h-1&#10;    c-0.1-0.3-0.1-0.6-0.1-0.8c-0.2,0.3-0.5,0.5-0.8,0.7C152.2,58.7,151.9,58.8,151.5,58.8z M150.8,57.2L150.8,57.2&#10;    c0,0.2,0.1,0.4,0.2,0.6c0.2,0.2,0.5,0.2,0.7,0.2c0.3,0,0.7-0.1,0.9-0.3c0.3-0.1,0.5-0.4,0.6-0.7v-0.9h-1.1c-0.4,0-0.7,0.1-1,0.3&#10;    C150.9,56.6,150.8,56.9,150.8,57.2L150.8,57.2z" class="st2"/><path d="M158.7,57.8c0.2-0.1,0.3-0.3,0.3-0.6c0-0.2-0.1-0.4-0.3-0.6c-0.3-0.2-0.6-0.3-1-0.4c-0.6-0.1-1.1-0.3-1.6-0.6&#10;    c-0.3-0.2-0.5-0.6-0.5-1c0-0.5,0.2-0.9,0.6-1.2c0.4-0.3,1-0.5,1.5-0.5c0.6,0,1.1,0.2,1.5,0.5c0.4,0.3,0.6,0.8,0.6,1.2l0,0h-1&#10;    c0-0.3-0.1-0.5-0.3-0.7c-0.2-0.2-0.5-0.3-0.8-0.3c-0.3,0-0.5,0-0.7,0.2c-0.2,0.1-0.3,0.3-0.3,0.6c0,0.2,0.1,0.4,0.2,0.5&#10;    c0.3,0.2,0.6,0.3,0.9,0.3c0.6,0.1,1.1,0.3,1.6,0.6c0.3,0.2,0.5,0.6,0.5,1c0,0.5-0.2,0.9-0.6,1.2c-0.5,0.3-1,0.5-1.6,0.5&#10;    c-0.6,0-1.2-0.2-1.6-0.5c-0.4-0.3-0.6-0.8-0.6-1.3l0,0h1c0,0.3,0.1,0.6,0.4,0.8c0.3,0.2,0.6,0.3,0.9,0.3l0,0&#10;    C158.1,58,158.4,57.9,158.7,57.8z" class="st2"/><path d="M161.7,61.2c-0.2,0-0.4,0-0.6-0.1l0.1-0.8h0.4c0.2,0,0.4-0.1,0.5-0.2c0.2-0.2,0.3-0.4,0.4-0.7l0.2-0.6&#10;    l-2.1-5.5h1.1l1.2,3.6l0.2,0.7l0,0l1.4-4.2h1.1l-2.4,6.4C163,60.7,162.4,61.2,161.7,61.2z" class="st2"/></g></svg>